<svg xmlns="http://www.w3.org/2000/svg" width="300" height="300" viewBox="0 0 300 300"><path d="M276 150Q288.98 174.51 268.4 193.09Q272.21 220.56 246.52 230.99Q240.71 258.1 213 259.12Q198.27 282.61 171.88 274.09Q150 291.12 128.12 274.09Q101.73 282.61 87 259.12Q59.29 258.1 53.48 230.99Q27.79 220.56 31.6 193.09Q11.02 174.51 24 150Q11.02 125.49 31.6 106.91Q27.79 79.44 53.48 69.01Q59.29 41.9 87 40.88Q101.73 17.39 128.12 25.91Q150 8.88 171.88 25.91Q198.27 17.39 213 40.88Q240.71 41.9 246.52 69.01Q272.21 79.44 268.4 106.91Q288.98 125.49 276 150z" fill="#3b342c"/><g transform="translate(75 75) scale(1.5)"><path d="M62 18a32 32 0 1 0 0 64a26 26 0 1 1 0-64zM72 30l4 8 8 2-8 3-4 8-3-8-8-3 8-2z" fill="none" stroke="#efe8d8" stroke-width="7" stroke-linecap="round" stroke-linejoin="round"/></g></svg>
