<svg xmlns="http://www.w3.org/2000/svg" width="554.26" height="480" viewBox="0 0 554.26 480"><polygon points="554.26,240 415.69,480 138.56,480 0,240 138.56,0 415.69,0" fill="#d3d5cc" stroke="#9a9a9a" stroke-width="6"/><desc>Sheep Statant. Source: A Complete Guide to Heraldry. Artist: Graham Johnston. Adapted by Owen Tegg. Digital illustration by Mathghamhain Ua Ruadháin for the Book of Traceable Heraldic Art, https://heraldicart.org/sheep/#sheep-statant. © 2016–2023 Matthew Simon Ryan Cavalletto. Licence: CC BY-SA 4.0, https://creativecommons.org/licenses/by-sa/4.0/. Simplified to two colours for recolouring.</desc><svg x="133.13" y="100.8" width="288" height="278.4" viewBox="72 68 275 225" fill="#1f1f1f"><defs><clipPath id="a"><path d="M72 68h275v225H72Z"/></clipPath></defs><g fill="none" stroke="none" stroke-dasharray="none" clip-path="url(#a)"><path fill="#d3d5cc" d="M318 289v-3l7-10 3-9-1-9-4-12-3-6-3-3-3-4v-2h2l-4-1q-5 0-8-4l-1-2-2-3h-2l-4-4-2-3-2-2-2-2-1 2-1 2-3 7-7 14-18 29q-2 6-5 7l-3 4-1 3-4 4-4 1-9 2h-2v-1l-1-1h-5l-1-1v-2l3-6 8-6 9-7v-2l2-3 1-1h1l1-4 3-4 3-6 2-7 1-9-1-3-1-1v-3l1-5-2-3-3-4-9 1-9 2-6 1-5 1-35 2-1 3-2 2q0 2-3 4l-1 1v1l-3 50-4 3h-1l-2 3-2 3-7 4-6 2h-2l-1-1-1-1 1-1-1-2-1 1h-3v-2l1-2 4-6 3-2 3-3c4-7 4-5-1-4v1l-2 2-2 4-7 3-8 3-2-1v-4h-5v-1l1-2 4-6 3-2 3-3 1-1 2-5 1-12-2-19-1-3-3-5-4-6-3-4-5-5-2-1v-2l-1-1-1-3v-3l-1-3v-6l-3-19-3-7-1-8v-16l-1-2-3-1-6-3-7-3-2-1-4 1h-5l-2-1h-1q-3 0-8-5l-3-4 1-5q2-5 8-8l2-1 43-26h2q2 0 2 3v3l2 2h2l6-2 8-2 1 1 1 2v3l-2 5-3 6 1 2 3 4 1 3 1 3 1 2 1 1v2l5 6 2 3 3 4 3 3 1 1 5 2 2 1h5l11 1 49-3h41l6 1 11 1 16 8 7 5 3 1 4 3 3 5a29 29 0 0 1 4 18l-1 7v3l-2 1 2 1v3l-1 3-1 6-1 6v11l1 3-1 8v1l1 3 1 4 9 29v2q2 6 1 11l-3 5-1 1-1 3-1 5-2 1-6 3-4-1h-1l-5 1h-2"/><path fill="#1f1f1f" d="M318 289v-3l7-10 3-9-1-9-4-12-3-6-3-3-3-4-2-3q-5 0-8-4l-1-2-2-3h-2l-4-4-2-3-2-2-2-2-1 2-1 2-3 7-7 14-18 29q-3 6-5 7l-3 4-1 3-4 4-4 1-9 2h-2v-1l-1-1h-5l-1-1v-2l3-6 8-6 9-7v-2l2-3 1-1h1v-2l1-2 3-4 3-6 2-7 1-9-1-3-1-1v-3l1-5-2-3-3-4-9 1-9 2-6 1-5 1-35 2-1 3-2 2q0 2-3 4l-1 1v1l-3 50-4 3h-1l-2 3-2 3-7 4-6 2h-2l-1-1-1-1 1-1-1-2-1 1h-3v-2l1-2 4-6 3-2 3-3 2-4 1-2h-1l-1 2h-2v1l-2 2-2 4-7 3-8 3-2-1v-4h-5v-1l1-2 4-6 3-2 3-3 1-1 2-5 1-12-2-19-1-3-3-5-4-6-3-4-5-5-2-1v-2l-1-1-1-3v-3l-1-3v-6l-3-19-3-7-1-8v-16l-1-2-3-1-6-3-7-3-2-1-4 1h-5l-2-1h-1q-3 0-8-5l-3-4 1-5q2-5 8-8l2-1 43-26h2q2 0 2 3v3l2 2h2l6-2 8-2 1 1 1 2v3l-2 5-3 6 1 2 3 4 1 3 1 3 1 2 1 1v2l5 6 2 3 3 4 3 3 1 1 5 2 2 1h5l11 1 49-3h41l6 1 11 1 16 8 7 5 3 1 4 3 3 5a29 29 0 0 1 4 18l-1 7v8l-1 3-1 6-1 6v11l1 3-1 8v1l1 3 1 4 9 29v2q2 6 1 11l-3 5-1 1-1 3-1 5-2 1-6 3-4-1h-1l-5 1h-2m8-7 2-3 2-2 1-1 1 1v4l1 1h1l1-2v-4l1-4h1l1-1q3 0 3-4l-1-3-8-22h-2v-3l-1-1v-1l-1-1h-5l2 4 5 21 1 7-2 5-1 2-4 6v1zm-163-1 2-1v-2l-1-1-2-1h5l1-2v-2l1-1h3l1-1 1-2v-25l-1-1 1-1v-2l-1-1-1-2v-1h1l-1-2v-1l-1-1h1v-1l1-1v-1h-1v-1l2 1v2h1v-2l-2-4-2-1-2 2v1h-3l-1-2h-2v2l1 1v1l-1 2 1 4 1 1 1 20-3 13-4 5-4 4v1l2-1 3-2h1v1l-1 3v1l1 1zm76-3 3-1 2-1v-1l-2-2-1-1h4l1-1 1-2 3-2 3-2 3-5 5-10-1-2 1-1v-2h1v1l1 1h1l2-3 3-5v-1l-1 1-1 1h-1v1l-1 2-1 1h-1v-1l2-4 1-3 1-2 1 1h1v-4l-1-5v-2h-1l-2-1h1l1-1 1-1 2-2h1l2-1 1-2v-1l1-2v-3l-2-2 2-1h1l-2-2-1-1h-1l-1 3-1 3-1 5-3 3-3 3-2 2 4 4h-5v4q-1 8-8 21l-11 15-3 2-6 4-2 1-1 1 1 1h2l2-1 2-2 2-2v-1l1 1-1 3-1 3v1zm-92-8h1l2-1-2-2-1-1q-1 0 0 0l1-1 1 1h3v-4l1-1 2-1 1 1 2-2v-5l1-15v-5l-1-1v-4l-1-2-1-1v-1l-1-1q-3-3-3-6l-1-3-1-1h-2l-1 1 1 1v4l1 4v2l2 18q-1 7-4 13l-1 2-2 3-5 5v1h1l2-1q1-3 3-2v4l-1 1zm125-37 1-2-1-2-1 1v1zq0 1 0 0m58-3-2 1h2m-2-3 1-1v-2l-1-2 1-1-1-1-3-1h-1l-2 5v2h3l2 1zm-53-1h2v-1zm35 0h-2zm4 0 1-1 1-3v-2l4 1 1-1v-1l-1-1h-1l1-1h4v-1l-1-1-3-2-4 7h-5v3l2 2zm-137-1 1-1-1-1zm95-1v-1h-1l-1 1zm5-2 1-2 1-1h1v-3h-1v2h-3l-1 1-1 2v1zm32 0 1-1-1-2v-2l1 1h2v-4h1l1 1 1 1h1l1-2q2 0 0 0v-1l-1-2 1-1 1 1 1 1 2-1h1v-1l1 1v2l1 1h1l-1-2v-1l2-2 1 1v5l-1 1v1h2l1-3v-2l-3-7-2 1-1 1-3 2-1-1v-1l1-1v-2l1-2-1-4h-1l-1 1-1 2-1 2-2 2-2 2h-1l-3-1 2-1 2-1 4-4v-3l3-1h2l2-3 1-3v-4l1-1v-1l-1-2q-2-1 1-2h1v-1l-1-2-1-1 1-1 1-1-2-2v-5h-4v2l1 3-1 2v2l1 2v8l-1 1-1-1v-4l-1-1v-2l-1-3h-1l1-1 1-1 1-1-1-2-1-1-1-1 2-3 2-2v-2l1-2 1-1v-1l-1-3h-2l-1-1v-2l-1-1-1-2h-2l-2-1 2-1 3 1 4 3 1 2 1 1v1l1 1h1v-1l-2-7h-1l-3-3-3-2h-2v-1h-1l-2-1-2-1-3-2-3-1-8-3-9-2-6 1v2l-2 1h-2l-1-1-1-1-1 1-2 1h-2l1-1v-2h-2l-3 1-2 1h-1q-2-1-5 1v1l-2 1h-1l-1-1h-2v-1l1-1 1-1h1-6l-2 2-4 2v1l1 1v1h-3l-4-1-1-1v-1h1l2 1 1 1h1v-2l3-2 2-2-1-1h-1l-2 1-2 1h-1v-1h-4l-41 2-5-1-6-1-2-1h-12v-1l-1-1-2-1h-2v-1l-1-3-1-2-3-4-1-2-2-1h-2v-4l-2-3v-2h-1l-1 1-1 1h-1v-3l-1-5-2 1-1 3v1l-1 2-1 3 1 1 2-1 2 1v1l-1 2v1h-3v1h-1l-1-1v-3l-5 2-2 1-4-1 1-2 3-1h2l2 1v-1l1-1v-1l-2-1h-1l-1-1h3q4 0 4-2v-4l1-1v-3l-1-3h-1l-2 1h-7l1-3 2-1h2l2 1 3-2 3-3-1-1h-1l-2 1v1h-3v-1l-1-1h-1v-2l5-3h4l3-1q1 0 0 0l-2-1-4 1-9 3-2 3-1 2h-3l-1-1v-2q2 0 0 0l-10 1-4 1-8 3-23 14v1l2-1-2 3-1 1v1l3 2h9l1-1 1-1 2 1v1l-1 2h-1v-2l-2 1-6 1h-2l-1 1 8 1 21 4 1-1 3-1h1l1-1v-1h1l3 1 3-1 2-2 1 1-1 1-3 2h-2l-4 1-1 3 1 1h2v-2h6v-1l2-1h2l1-1h2l2 1h3l1-1 2 1v1h2l-1 2h-4l-1-1-1 1q-5 1-7 3l-3 2h-4v5l-1 6v1h2l1-2 1-3 1-4 3-2-1 1-1 1 1 1 1-1 1-1h1l1 5v3h-1v-3l-2-1-1 1-1 2v2l1 1h1l1 1-1 2 1 1v2l-1 1q-2 2-2-2v-3l-1-1-4 2-1 3v1l1 1h1v1l-1 2-1 1 1 1 2 2v1l-1 1 1 1 1 2h1v-3l1-2 1-3 2-1h1l-1 1v1l-1 2v2l1 2 1 1 1 1-1 1v1l-1 1-1-1-1-1-1 1v3h1v2h-1l1 2v4h-1l1 1h1l1-2v-3l-1-1 1-2 1-1v1l1 2h2l1-1 1 2v2h2l1 1v2l-1 2-1 2-1 1 1 2 1 1 2-5v-1h1v5l2 2 1-1 2-8v-3l1-4 2-3v4l1 1-2 2-1 2 2 1h1l1-1v-2h1l2-2v-2h3v1l-3 3-1 3-1 2h-2l-1 1h-1l-1 1 1 1h2l2-1 5-6 1-2 2-2 1-1 4-4 3-1h1l-1 1-1 1-2 1-1 2-2 2-2 2-1 2v1h-1l-2 2v3l-2 1-1 1v2l1 3h2l3 3v2l-2-1h-1l-2 2h-3v1h1l1 1 2 1v5l1 1v5l1 1h1l1 1 2-1h3l1-1 1-1h1v1l-1 2-1 1-2 1v1l1 1h1l3-1 1-1v-1 2l-2 4v1l-1 2-1 1v1h6l2 1 1-2-1-1-2-2-1-1h4l1 1v-2l-1-2h1l3 1 1-1v-1l-1-1-1-1h1v-1h3v2l2 1h1v-1l-1-3-1-2 1-3 2-3h3l2 1 1-1 1-5-2-4-1-1v-1l-1-2h-3v-1h4l2 1 1 1q2 3 3 1l-1-2-1-1h2l3 1-1 4-1 1v1l1 2h2l1-1-1-1v-2h1l2 1 1 1h1l3-2v2l-1 1-2 1-2 1h-1l-2 2-2 1 2 2 3 1h2v-2h2l3 1h2v-1l-2-2-1-1h3l2 1 1-1v-1h-1l-1-2 1-1 1 1h2l1 1v1h-1l-1 1-1 1v3l3 1h1l1-1 1-1 1 1 1 1 1 1q2 2 3-1l1-1 1-1v1l2 1 4 1 2 1h4l-1-1-3-1-2-2v-1l3 1 3 1v-3h-1v-2l1 1 3 1 2-1 1-1h1v3l2 1h1v1l2 1 1 1 2-1 2-1 1-1v-1l-1-1-2-1v-1l-7-3h-2l-2 1-5 1h-2l-1-1 1-1 3 1h1v-2l1-2 1 1h3l2-1 1-2-1-1-1-1v-2h1l2 1 1 1 1 1 1-1h3l1 1h2v-1l1-1 3-1h2l1 1h1l2 1 1 1 1 1 1 1 3 1h4l1 1h3v1l-1 2 2 1q3 2 4 1l-2-2v-1h5v-1l1-1h2l5 1-2 2h-1l-6 3 3 1h1l-1 1h-2l-4-1-3 1 3 3h3v2l1 2q1 3 4 2h1v-1l-1-1-2-1 2-1 1-1 1-1 2-3 2-1-1 2v1l-1 2v2l1 3 1 2h1l1-1v-1l2 2 1 2h2l1-1 1 3-1 1h-2q-2-1-3 1v2l1 2 3 3zm-138-13-1-1 1-2v-2h1v-3h1l1 5-2 3zm5-3v-2l1-2 1-2-1-3v-1l1-1 1-1-1-2-2-1 1-2v-1l-1-1-2-2v-1l4 2 2 3 1 1v8l-3 7zm10-8-1-1v-2l1-1 1 2v1zm64 0-1-1v-1h2l1 1zm59-3v-2h2v1zm6-3 1-1v-2h1q0-1 0 0 3 1 2 3l-1 1zm-109-3-2-2v-1h4l1-1h1l1-1 3 1v1l-2 1-5 3zm-8-5-2-2 1-1 1 1h2v1zm72 0-1-1-1-1v-1l1 1zm5-1-1-1 1-1zm-84-1-1-1h2zm10-2h-1l-1-1v-1l2-1 2-1h1v3l-1 1zm60-1q-2 0-2-3v-1l1-1 1 1 1 1 1 3zm14-1-1-1-2-1h-1l-1-2-1-1 1-1v-1l1 1 1 2h1l2-1 1 1v2l1 1v1zm-134-8-1-1-1-1h4zm128-2-2-2v-1l2 1 2 2zm5-1q-2-1-1-3v-1h1l2 2v2zm-133-2h-1l-1-2h3v2zm-7 0-1-1 1-1 1-1v1l1 1 1 2h-2m145 0-1-1-2-2v-1h4l1 1v1l-1 2zm-129-1v-1zm0-4v-1l2-2h2v1zm-16-1-1-3 1-1h1l1 1zm9 0-1-2v-1l1 1zm24 0v-1l2-2h2v1l-3 2zm-23-4v-2l2 1v1zm2-5h-1l-1-2v-5l2-2 3-1 1 1-1 1h-1l-1 2-1 2 1 2h1v1l-1 1zm38-5-1-1-1-2h1l1-1h1l1 2-1 1zm-4-2-1-2 1-1 2 2zm112-1-1-1 4-3h3v1h-1l-2 2-2 1zm7 0 1-1h1v1l-1 1zm-66-2-2-2v-1h2l1 1v2zm54-1 1-2 1-1h2l-1 2zm-139 0 1-2v-1l1-1v-2h-1l-1-1v-2l2-2 1 1h1v6zm134-2 1-1h3v1l-2 1zm-163-26-7-5q-3-3-2-5v-1h-6v-1h1l3-2v-4l1-1h3l1 1h3l1-1 2 1 3 2 1 1h2l1 1h-1l-1 1v2l-6 5-2 1v2l2 1h2l1 1-1 1zm-1-10 1-1 2-3-1-2h-1l-1 2v3l-3-1h-1l1 1 1 1zm18 3-2-1 1-1h3v1zm-2-4h3zm42 120 2-1h1v-3q0-1 0 0l-3 1-1 2v2zm84-1 2-1 1-1v-1l1-1h1l1-1-1-2 1-1h1l1-1v-1l-1-1-1-1 1-1 1-1-3-2-3-1-2-1-3-1-1 1v1l2 1h2l1 1 2 3v3l-2 1h-1l-1 2v6zm40-3 1-1v-2l-4-3-1 1 1 1v3zm-142 0 3-1v-3l-1-1h-2v1l-1 1-1 1v1l1 1zm121-5v-2l-2 1zm-126-1h-1l-2-1-1-1h-1v1l1 1q2 2 4 1m129 0 1-1v-2l-2-2-2-1-1 1 1 1h1l1 1v1zm-22-2v-3l-2-1v4zm-4-1h-1zm-53-1h1l-1-2-4-1h-2l-1 1 1 1zm-18 0 1-3-1-2-1 2-1 3zm27 0h12l-2-1q-5-2-8-1h-1v1l-1-1-1-2-1-1-1 1h-2v2l3 1zm-68 0-2-1h-1l1 1zm51 0v-2l-4-1v1l1 2zm-60-3v-2l-1-1h-1v3zm56-1h1l1-1v-1h-1l-2 1v1zm-40 0-1-1-1 1v1zm95 0h-3zm-107 0 1-1 1-1-3-4-2-1v-2l-1-1-1 1-1 1v2h-1l-2-1h-1v1h-1l1 1v1q1 2 2 1l2-1 1-2zm186 0 1-1v-1h-1zm-181-1 1-2v-2l-1-1-2 1v3zm3 0 1-1v-13h1v-2l-3-1-2 1v1l1 1 1 1v9l1 3zm114-3 2-2v-1l-1-1h-1v-1l-1-1h-1l-1-1-1-1-2-2h-3l-2 1 1 2 1 1h5l1 1v1h2v1l-1 2zm64-1q3-3 4-10v-5l-1-1v1l-1 4-2 7-2 3 1 1zm-54-1-1-1-1 1zm8 0 1-1v-1l-2-2-1 1-1 2zm-4-2v-3h-1v2zm-6-1 2-2-1-1-2-1-1 1v1zm-126-1 1-1v-1l-2-2-1-1-1 1-1 1 1 2zm117-2h1l1-1h4l1-1-1-1-3-2-1 1q-3 0-3 2v2zm-122 0 1-1 1-1v-1l-1-1-1-1-1 1v3zm-9 0 1-1v-1h-1l-1-1 1-2 1 2 2 1 2-1-1-1-1-2h1l1 1 1-1v-1l-1-2h-1l-1 1v1l-1-1h-2v-1h-2l-1 1v2l1 3v2l1 1zm20-7 1-1v-1l-2-1-1 1 1 2zm181-6 1-6v-2q-2 1-2 5v3zm-196-2 1-1-1-1-1-1-2-1v1q-1 3 2 3zm190-11v-1h-1v1zm4-2 1-1-1-1-2-2h-1l-1 1v1a3 3 0 0 0 4 2m3-4-1-3-2-2v2zm-208-33v-1l-2-1v1l1 1zm5-3 3-1v-1l-2 1zm-3-42q3 0 3-2v-1l-1-1q-4 1-5 4v1z"/></g></svg></svg>
