<svg xmlns="http://www.w3.org/2000/svg" width="300" height="300" viewBox="0 0 300 300"><g transform="translate(5 5) scale(2.9)"><path d="M92.2 69.8C89.4 76.2 83.8 83.9 78.1 88.2C72.5 92.4 65.1 94.5 58.2 95.2C51.3 95.9 42.9 94.7 36.5 92.2C30.2 89.6 24.4 85.2 20.1 79.8C15.9 74.4 11.9 66.6 10.9 59.6C10 52.6 11.8 44.5 14.6 37.9C17.5 31.3 22.5 24.2 28 19.9C33.5 15.5 40.6 12.5 47.5 11.8C54.4 11.1 62.9 13 69.4 15.8C75.9 18.6 82.3 23 86.6 28.6C90.9 34.2 94.3 42.6 95.3 49.5C96.2 56.3 95.1 63.3 92.2 69.8Z" fill="#7a2230"/><path d="M90.3 58.4C89 65.2 85.5 72.1 80.8 77.3C76 82.4 68.6 86.7 62 89.1C55.5 91.5 48.1 92.9 41.3 91.8C34.5 90.6 26.7 86.8 21.4 82.1C16.2 77.3 12.3 70 9.9 63.2C7.5 56.3 5.8 47.9 7.1 41.1C8.4 34.3 12.9 27.6 17.7 22.4C22.4 17.2 29.2 12.3 35.8 10C42.4 7.7 50.5 7.2 57.3 8.7C64 10.2 71.1 14.4 76.3 19C81.5 23.6 86.3 29.6 88.6 36.2C91 42.7 91.6 51.5 90.3 58.4Z" fill="#efe0c6" stroke="#7a2230" stroke-width="7" stroke-linejoin="round"/><path d="M40.4 38.3C42.3 36.8 49.9 24.3 51.8 29.6C53.8 34.9 52.2 63.4 52.2 70.2M39.6 69.7C43.6 69.7 60 69.7 64.1 69.6" fill="none" stroke="#7a2230" stroke-width="8.5" stroke-linecap="round" stroke-linejoin="round"/></g></svg>
