<svg xmlns="http://www.w3.org/2000/svg" width="292.5" height="279" fill="#000" viewBox="36 63 292.5 279"><desc>Crow. Source: Banners, Standards, and Badges. Artist: Thomas Willement. Digital illustration by Mathghamhain Ua Ruadháin for the Book of Traceable Heraldic Art, https://heraldicart.org/crow/#crow-3. © 2016–2023 Matthew Simon Ryan Cavalletto. Licence: CC BY-SA 4.0, https://creativecommons.org/licenses/by-sa/4.0/. Simplified to two colours for recolouring.</desc><defs><clipPath id="a"><path d="M36 63h292.5v279H36Z"/></clipPath></defs><g fill="none" stroke="none" stroke-dasharray="none" clip-path="url(#a)"><path fill="#000" d="M87 67c-5 2-8.4 2-16.3 1a36 36 0 0 0-25.6 3.5c-9 4.6-7.7 5.4 11.4 8 6.5 1 16.3 6.2 12.1 6.7l-14 2.4c-18 3-17.5 6 2.2 10.2 12 2.8 21.4 7.6 21.4 10.8 0 1-2.5 5.6-5.6 10-12.3 17.2-13.3 34.2-3 53.8a117 117 0 0 0 37.1 39.1c6.8 4 8.4 5.8 9.2 10.6.4 3.2 3.5 9.9 6.5 14.9 6.4 10.8 6.6 13 1.6 23-6.5 12.7-9.3 14.7-20 14.7-9 0-26.4 4.8-29.8 8.2-3 3 2.3 4.2 12.5 2.7a183 183 0 0 0 13.2-2.2q3.2-1.1-3.3 5.3c-8.4 8.1-16.8 18-16.8 19.8 0 2.4 4.4 1.6 6.6-1.3 2.7-3.2 21-16.8 21.6-16 .3.2-.6 5.8-2 12.2-1.2 6.4-2 12.2-1.5 12.6s3.5-5 6.7-11.8l7.4-16.2c1.1-2.2 5.6-5.1 12.3-7.7 11.9-4.8 14.9-6.8 13.6-9q-1-1.3-2.9 0c-1 1-5 2.2-9 2.8l-6.8 1.1 5.4-7.7c14.1-19.5 16-22.7 17.6-28.5.8-3.2 2.4-5.9 3.6-5.9 1 0 8.3 6.3 16.1 14 14.1 13.9 14.1 13.9 13.3 20.8a77 77 0 0 1-5.1 17.2c-4.5 10.5-4.5 10.5-13.5 13-5 1.3-11.8 3.5-15.3 5-3.5 1.3-10.3 3.2-15 4.3s-8.2 2.6-8 3.4c.6 1.7 3 1.9 17 .3l10-1.1-13.6 13a109 109 0 0 0-13.6 14.3q.1 4.4 10.8-5c4.2-3.8 10.8-8.6 14.8-10.8s9.6-5.8 12.5-8c2.8-2.1 5.7-3.4 6.2-2.9s-.3 5.4-1.8 11.2c-3 12.3-3.2 17.5-.6 16.7 1.8-.7 8.3-18.5 10-27.1.7-3.5 2-4.5 6.8-5.4 8.5-1.5 16.5-5.6 16.5-8.2 0-1.6-2.4-2.2-9-2.2s-8.8-.5-8.1-2l7.7-17.3a69 69 0 0 0 6.8-22.7c0-4.3 1-7.7 1.8-7.7 1 0 10 3 20.5 6.4 10.6 3.6 19.8 6.4 21 6.4 1 0 10.4 3.2 20.8 7.2 18 7 28 11.9 32.8 16.5 8 7.9 14.6 8.3 14.6 1.1 0-5.6-2.4-9.9-9.5-17.2l-5.7-6.1 15.6 1c15 1.2 15.6 1 15.6-2.1 0-4-8.2-8.9-20.2-11.7-10.7-2.6-14.7-4.8-35-19a294 294 0 0 0-22-14.3c-2.4-1.3-12.2-8.5-21.6-16a451 451 0 0 0-25.3-19.2c-4.3-3-10-7.4-12.8-9.8-2.6-2.4-14-11.4-25.6-20a562 562 0 0 1-26-20.5c-7-6.6-11-15.7-13.4-30.8-1.1-7-3.4-15.3-4.8-18.5-3.7-7.4-11.7-14.3-16.6-14.3-2.1 0-4.7-.3-6-.6-1-.5-5 .3-8.5 1.6"/><path fill="#f3f3f3" d="M105.5 73.4c6.7 5.8 8.6 10.2 12 27a126 126 0 0 0 5 19.7c2.6 7 16.3 19 45.5 40.7q21.3 15.8 44.4 34.4c14 11.2 20 15.7 32.6 23.7 11 7 30.1 20.2 30.1 20.7 0 1-38.5-10-53.1-15a462 462 0 0 1-81.8-37 42 42 0 0 0-9-4.7c-2.9 0-19.2-17.1-20.3-21.3-1.4-6.2 3.2-11.4 9.3-10 2.5.4 4.5 0 4.5-.7s-1.3-1.6-2.8-2a12.3 12.3 0 0 0-14.7 15.3c2.7 9.6 13 17.3 49.5 37.4a460 460 0 0 0 70.4 29 804 804 0 0 0 78 22.7c4.5.8 9.6 2.1 11.2 3 2.5 1.5 2.4 1.7-1.5 1.8-6.4 0-28-3-38-5.6-16-3.8-17.7-4-17.7-2.9a54 54 0 0 0 14.4 7 92 92 0 0 1 20.2 10.2c5.6 4.5 11.4 14.7 9.6 16.6-.5.5-5.1-2-10-5.6a305 305 0 0 0-51.8-25c-4-1.2-15-4.3-24.6-6.7-18.8-4.5-21.6-6.4-21.8-14.4 0-2.7-.8-6-1.8-7.2-1.2-1.7-1.4 3.2-.6 17.3 1 19.5.8 19.7-4 30.1a225 225 0 0 0-11.2 28.7c0 .1 2.2 0 4.8-.5 2.7-.3 4.8 0 4.8 1 0 2-7.5 3.8-11.2 2.7-2.9-1-2.9-1.2-.2-6.1a97 97 0 0 0 6.6-16.4c2-6.2 4.3-11.5 5-12.1 3.3-2.1-2.3-11.9-13.3-22.8-14.3-14-23.4-20.4-35-24.1a131 131 0 0 1-48-28.4q-39-39-13.4-73.3c3.8-5.1 7-10.5 7-11.8 0-6.8-15-14-29-14-3.3 0-6.3-.6-7-1.4-1.3-2 10.7-2.9 22.3-1.3 10.7 1.3 13.1.2 9.3-4.5A28 28 0 0 0 58 76.4c-5.8-.6-10.1-1.6-9.6-1.9 2.4-2.4 15.3-3.3 23.3-1.7 7.6 1.4 9.6 1.2 13.6-.8 7.2-3.9 14.3-3.4 20 1.4"/><path fill="#f3f3f3" d="M127.9 225.2c0 .3-1.2 1.4-2.4 2.5-2.1 1.8-2.3 1.6-1.5-.6s3.9-3.7 3.9-2m2.7 5.3c-1.5 1.5-3.2 2.1-3.9 1.5s.2-2.3 1.8-3.5c4-3 5.6-1.3 2 2m3.8 4.6c-6.8 7-5.2 7.1 3.3.4 3.4-2.7 6.8-4.5 7.4-3.8 1.1 1-10.4 11.3-13 11.3-.8 0-2.2-1.3-3.2-2.9-1.4-2.4-.8-3.6 3.9-7.5 7.3-6 8.3-4.6 1.6 2.4m8.7 7.5c-.9 1.2-1.5 3-1.7 4-.3 2-22.9 34.1-24 34.1q-2.8 0 5.4-10.5c7-9 10-15.2 10-20.7q-.1-3.6 5.3-6.9 8.2-5 5 0M107.5 280c.5.9-3.6 1.5-9 1.5q-9.7.3-6.7-1c4.2-1.7 14.8-1.9 15.7-.4m6.8 2c-.5.8-1.6 1.6-2.6 1.6q-1.3-.2-1.4-1.6.1-1.6 2.5-1.6 2.1.1 1.5 1.6m-10.9 8.9c-2.4 2.2-5.3 4-6.1 4-1 0 .5-1.8 2.9-4a18 18 0 0 1 6-3.9c1 0-.4 1.8-2.8 3.8m10.1 2.6c-1.8 5.8-3.2 7.9-3.2 4.5 0-4 1.9-9.5 3.2-9.5.8 0 .8 2.3 0 5m56.8 9.5q.6 1.4-.7 1.6-1.6-.2-1.7-1.6 0-1.6.6-1.6.9 0 1.8 1.6m-8.8 1.6c-1.3.8-3.9 1.4-5.6 1.4h-3.2l3.2-1.4a17 17 0 0 1 5.6-1.5c2-.1 2 0 0 1.5m-1.6 6.5c-6 5.1-11.2 8.5-11.2 7.2a80 80 0 0 1 15.8-12.1c.5.1-1.6 2.2-4.6 5m13.6 6.2c-.7 3.6-1.5 6.2-2 5.7-.4-.3-.3-3.7.4-7.3.6-3.7 1.4-6.3 2-5.8.4.3.2 3.7-.4 7.4"/><path fill="#000" d="M85.8 78.4q-3 .5-1.8 4.1c1.8 6.1 6 9 14 9.6 7.3.7 7.5.7 7.5-3.8 0-8.7-8.4-12.8-19.7-10"/><path fill="#f3f3f3" d="M93.3 87.3c3 1.1 4.5-1 3.2-4.3-1.5-3.7 2-3.2 4.2.6 2.2 4 .8 6.4-3.6 6.4-4.1 0-9.3-4.3-9.1-7.8q0-2.7 1.4.8c.7 2 2.4 3.8 3.9 4.3"/><path fill="#000" d="M135.9 247.7c-3.2 3.9-1 4.5 2.4.8 1.6-1.7 2-3.2 1.3-3.2-1 0-2.6 1.1-3.7 2.4"/></g></svg>
